<svg width="47" height="42" viewBox="0 0 47 42" fill="none" xmlns="http://www.w3.org/2000/svg">
<path d="M23.5 40.25C25.6542 40.25 27.3971 38.6925 27.3971 36.7675H19.6029C19.6029 38.6925 21.3458 40.25 23.5 40.25ZM39.7346 32.0075L37.2083 29.75V19.25C37.2083 13.3875 32.5867 8.4875 26.4375 7.2975V5.25C26.4375 3.7975 25.1254 2.625 23.5 2.625C21.8746 2.625 20.5625 3.7975 20.5625 5.25V7.2975C14.4133 8.4875 9.79167 13.3875 9.79167 19.25V29.75L7.26542 32.0075C6.03167 33.11 6.89333 35 8.63625 35H38.3442C40.1067 35 40.9683 33.11 39.7346 32.0075ZM25.4583 28H21.5417V24.5H25.4583V28ZM25.4583 19.25C25.4583 20.2125 24.5771 21 23.5 21C22.4229 21 21.5417 20.2125 21.5417 19.25V15.75C21.5417 14.7875 22.4229 14 23.5 14C24.5771 14 25.4583 14.7875 25.4583 15.75V19.25Z" fill="#D5E4F2"/>
</svg>
